<svg xmlns="http://www.w3.org/2000/svg" version="1.1" xmlns:xlink="http://www.w3.org/1999/xlink" xmlns:svgjs="http://svgjs.dev/svgjs" viewBox="0 0 800 800" opacity="1"><defs><linearGradient x1="50%" y1="0%" x2="50%" y2="100%" id="uundulate-grad"><stop stop-color="hsl(37, 99%, 67%)" stop-opacity="1" offset="45%"></stop><stop stop-color="hsl(316, 73%, 52%)" stop-opacity="1" offset="100%"></stop></linearGradient></defs><g stroke-width="2" stroke="url(#uundulate-grad)" fill="none"><path d="M663.1908440229026 432.4889949144897C655.0093389605543 580.4935160374979 644.0818164523978 648.1985450649613 581.6920928360554 722.0703306919931C519.302369219713 795.9421163190254 449.17484688672766 798.8694700689389 363.7201706644604 787.073565924243C278.265494442193 775.2776617795471 218.75915040200937 737.6242900194998 171.50964696917248 665.4499907974517C124.26014353633565 593.2756915754038 113.55234563387597 523.675946963738 136.92255418684329 440.6369296584119C160.2927627398106 357.5979123530858 182.84482240914747 356.23527030623245 283.6866480234147 266.862707731887C384.52847363768194 177.49014515754152 541.8999429687669 -22.856847194822308 620.963317135327 11.648629301553513C700.0266913018869 46.15410579792933 671.372349085251 284.4844737914816 663.1908440229026 432.4889949144897C655.0093389605543 580.4935160374979 644.0818164523978 648.1985450649613 581.6920928360554 722.0703306919931 "></path><path d="M651.2276238400434 431.0121724805214C643.4180053714381 572.2892153706656 632.9871884318343 636.9167430786988 573.4333613435074 707.4307202681384C513.8795342551807 777.9446974575781 446.93962657369457 780.7389896734046 365.3692538160758 769.4792629898313C283.7988810584569 758.2195363062579 226.99737083828165 722.2776814443946 181.89557210693738 653.3840321869851C136.7937733755931 584.4903829295758 126.57269355960887 518.0542630729857 148.88061990562312 438.7897465542653C171.18854625163738 359.52523003554484 192.71551229964075 358.22452626354857 288.9736185678049 272.91435289712797C385.2317248359691 187.6041795307072 535.4499455610958 -3.636131351094548 610.9195299928122 29.300914395446C686.3891144245284 62.23796014198649 659.0372423086487 289.73512959037726 651.2276238400434 431.0121724805214C643.4180053714381 572.2892153706656 632.9871884318343 636.9167430786988 573.4333613435074 707.4307202681384 "></path><path d="M639.2643883983951 429.53547211686566C631.826656523533 564.0850367741458 621.8925451524817 625.6350631627488 565.1746145921704 692.7912319145961C508.45668403185914 759.9474006664434 444.70439100187264 762.608631348183 367.01832170890214 751.8850821257322C289.33225241593186 741.1615329032813 235.23557601576488 706.931194939602 192.28148198591322 641.3181956468312C149.3273879560615 575.7051963540603 139.59302622655275 512.4327012525459 160.83867036561395 436.94268552043127C182.0843145046751 361.4526697883166 202.58618693134503 360.2139042911773 294.2605738534062 278.96612013268134C385.9349607754673 197.71833597418544 528.9999328946355 15.584706562945655 600.8757275915082 46.95332155965093C672.7515222883809 78.3219365563562 646.7021202732574 294.9859074595854 639.2643883983951 429.53547211686566C631.826656523533 564.0850367741458 621.8925451524817 625.6350631627488 565.1746145921704 692.7912319145961 "></path><path d="M627.3011682155359 428.0585886477411C620.2353229344169 555.8806750721571 610.7979171319181 614.35320014133 556.9158830996224 678.1515604555851C503.03384906732674 741.94992076984 442.46917068883954 744.4780899174925 368.66740486051765 734.2907181561643C294.86563903219576 724.1033463948361 243.47379645203722 691.5845253293406 202.66740712367812 629.2521760012083C161.86101779531896 566.9198266730759 152.61337415228564 506.8109563266373 172.79673608439379 435.09544138112847C192.98009801650187 363.3799264356194 212.4568768218383 362.20309921333717 299.5475443977964 285.0177042627661C386.63821197375444 207.83230931219487 522.5499354869643 34.80536137151711 590.8319404489932 64.60554561838711C659.1139454110223 94.40572986525711 634.367013496655 300.2365022233249 627.3011682155359 428.0585886477411C620.2353229344169 555.8806750721571 610.7979171319181 614.35320014133 556.9158830996224 678.1515604555851 "></path><path d="M615.3379480326768 426.5818882840854C608.6439893453007 547.6764964756375 599.7032891113546 603.0715202253803 548.6571516070744 663.5120721020428C497.61101410279434 723.9526239787054 440.23395037580644 726.347731592271 370.31648801213305 716.6965372920653C300.39902564845977 707.0453429918595 251.7120168883095 676.2380388245481 213.05333226144296 617.1863394610543C174.39464763457647 558.1346400975605 165.63372207801854 501.1893945061976 184.75480180317362 433.2483803472944C203.8758815283287 365.30736618839114 222.3275667123316 364.1924772409658 304.8345149421866 291.06947149831944C387.3414631720416 217.94646575567316 516.099938079293 54.02619928555731 580.7881533064785 82.2579527825921C645.4763685336638 110.48970627962683 622.0319067200527 305.4872800925332 615.3379480326768 426.5818882840854C608.6439893453007 547.6764964756375 599.7032891113546 603.0715202253803 548.6571516070744 663.5120721020428 "></path><path d="M603.3747125910285 425.1051268852732C597.0526404973956 539.4722568439614 588.6086458320019 591.789779274274 540.3984048557375 648.8725227133441C492.1881638794729 705.9552661524144 437.9987148039843 708.2173122318931 371.9655559049595 699.1022953928098C305.93239700593466 689.9872785537266 259.95022206579273 660.8914912845992 223.4392421404188 605.120441885744C186.92826221504487 549.3493924868887 178.65405474496242 495.56777165060146 196.7128522631644 431.4012582783041C214.77164978136642 367.23474490600654 232.1982413440358 366.18179423343815 310.12147022778777 297.1211776987167C388.0446991115398 228.0605611639951 509.6499254128328 73.24697616444132 570.7443509051745 99.91029891164078C631.8387763975163 126.5736216588403 609.6967846846612 310.7379969265851 603.3747125910285 425.1051268852732C597.0526404973956 539.4722568439614 588.6086458320019 591.789779274274 540.3984048557375 648.8725227133441 "></path><path d="M591.4115229257474 423.6283349688831C585.4613374258577 531.2679866947072 577.5140483290165 580.5080078055896 532.1397038807676 634.2329428070675C486.7653594325186 687.9578778085454 435.7635250085293 690.086862353937 373.614669574153 681.5080229759764C311.46581413977674 672.9291835980157 268.1884730196432 645.5449132270721 233.82519779576182 593.0545137928555C199.46192257188045 540.5641143586388 191.67443318827344 489.94611827742733 208.6709484995224 429.5541056917357C225.66746381077132 369.1620931060439 242.06896175210727 368.1710807083325 315.40847128975616 303.1728533815357C388.74798082740506 238.17462605473895 503.19995852273973 92.46772252574715 560.7005942802377 117.56261452311139C618.201230037736 142.65750652047558 597.3617084256371 315.988683243059 591.4115229257474 423.6283349688831C585.4613374258577 531.2679866947072 577.5140483290165 580.5080078055896 532.1397038807676 634.2329428070675 "></path><path d="M579.4483027428882 422.151543052493C573.8700038367415 523.0637165454532 566.419420308453 569.2262363369055 523.8809723882196 619.5933629007909C481.3425244679861 669.9604894646765 433.5283046954962 671.956412475981 375.2637527257684 663.913750559143C316.9992007560407 655.8710886423048 276.4266934559155 630.1983351695453 244.21112293352672 580.9885856999672C211.9955524111379 531.778836230389 204.69478111400633 484.3244649042532 220.62901421830225 427.70695310516726C236.5632473225981 371.0894413060812 251.93965164260055 370.16036718322675 320.6954418341464 309.2245290643548C389.4512320256922 248.2886909454828 496.74996111506846 111.68846888705298 550.6568071377229 135.21493013458195C604.5636531603775 158.74139138211092 585.0266016490348 321.23936955953286 579.4483027428882 422.151543052493C573.8700038367415 523.0637165454532 566.419420308453 569.2262363369055 523.8809723882196 619.5933629007909 "></path><path d="M567.485082560029 420.67485794762615C562.2786702476254 514.8595532077223 555.3247922878895 557.9445716797445 515.6222408956717 604.9538898060376C475.9196895034538 651.9632079323308 431.2930843824631 653.8260694095484 376.91283587738394 646.3195849538329C322.53258737230465 638.8131004981173 284.66491389218777 614.8518639235417 254.59704807129157 568.9227644186021C224.52918225039542 522.9936649136625 217.71512903973928 478.7029183426025 232.58707993708208 425.85990733012227C247.45903083442494 373.0168963176419 261.81034153309383 372.14976046964443 325.98241237853665 315.2763115586972C390.15448322397947 258.4028626477501 490.2999637073972 130.90932205988224 540.6130199952081 152.86735255757594C590.9260762830189 174.82538305526964 572.6914948724325 326.4901626875301 567.485082560029 420.67485794762615C562.2786702476254 514.8595532077223 555.3247922878895 557.9445716797445 515.6222408956717 604.9538898060376 "></path><path d="M555.5218623771698 419.198050772447C550.6873366585094 506.6552677996791 544.230164267326 546.6627849522711 507.36350940312366 590.3142946409719C470.4968545389213 633.9658043296727 429.05786406943 635.6956042728033 378.56191902899934 628.7252972782103C328.0659739885686 621.7549902836172 292.90313432846006 599.5052706072256 264.98297320905647 556.8568210669246C237.06281208965288 514.2083715266235 230.73547696547217 473.0812497106392 244.54514565586192 424.01273948476467C258.3548143462517 374.9442292588901 271.6810314235871 374.1390316857496 331.26938292292687 321.32797198272726C390.8577344222666 268.5169122797049 483.849966299726 150.13005316239907 530.5692328526932 170.5196529102575C577.2884994056604 190.90925265811592 560.3563880958302 331.7408337452149 555.5218623771698 419.198050772447C550.6873366585094 506.6552677996791 544.230164267326 546.6627849522711 507.36350940312366 590.3142946409719 "></path><path d="M543.5586421943106 417.7212588560569C539.0960030693932 498.45099765042505 533.1355362467625 535.3810134835868 499.10477791057565 575.6747147346953C465.0740195743889 615.9684159858036 426.82264375639693 617.5651543948474 380.21100218061474 611.1310248613768C333.59936060483255 604.6968953279063 301.1413547647324 584.1586925496988 275.36889834682137 544.7908929740362C249.59644192891034 505.4230933983737 243.75582489120507 467.4595963374651 256.5032113746418 422.16558689819624C269.2505978580785 376.8715774589275 281.55172131408045 376.12831816064386 336.5563534673171 327.3796476655463C391.56098562055377 278.6309771704488 477.39996889205474 169.3507995237049 520.5254457101784 188.17196852172805C563.650922528302 206.9931375197512 548.0212813192278 336.9915200616888 543.5586421943106 417.7212588560569C539.0960030693932 498.45099765042505 533.1355362467625 535.3810134835868 499.10477791057565 575.6747147346953 "></path><path d="M531.5954067526623 416.24449745724485C527.5046542214881 490.246758018749 522.0408929674098 524.0992725324807 490.8460311592387 561.0351653459966C459.65116935106744 597.9710581595127 424.58740818457477 599.4347350344694 381.86007007344114 593.5367829621215C339.13273196230745 587.6388308897735 309.3795599422156 568.8121450097499 285.7548082257972 532.7249953987259C262.13005650937873 496.63784578770196 256.77615755814895 461.8379734818691 268.4612618346326 420.31846482920594C280.1463661111162 378.7989561765429 291.4223959457847 378.1176351531162 341.8433087529183 333.4313538659435C392.2642215600519 288.74507257877076 470.9499562255944 188.57157640258885 510.4816433088745 205.82431465077678C550.0133303921543 223.07705289896467 535.6861592838364 342.2422368957408 531.5954067526623 416.24449745724485C527.5046542214881 490.246758018749 522.0408929674098 524.0992725324807 490.8460311592387 561.0351653459966 "></path><path d="M519.6322170873812 414.76770554085465C515.9133511499501 482.04248786949483 510.94629546442445 512.8175010637963 482.5873301842688 546.39558543972C454.22836490411316 579.9736698156436 422.3522183891199 581.3042851565134 383.50918374263466 575.942510545288C344.6661490961495 570.5807359340625 317.61781089606603 553.4655669522228 296.1407638811402 520.6590673058374C274.6637168662144 487.852567659452 269.79653600145997 456.21632010869484 280.41935807099054 418.4713122426375C291.04218014052117 380.7263043765802 301.2931163538561 380.1069216280105 347.1303098148867 339.48302954876254C392.96750327591724 298.8591374695146 464.49998933550137 207.79232276389467 500.4378866839377 223.47663026224734C536.375784032374 239.16093776059995 523.3510830248123 347.4929232122146 519.6322170873812 414.76770554085465C515.9133511499501 482.04248786949483 510.94629546442445 512.8175010637963 482.5873301842688 546.39558543972 "></path><path d="M507.6689969045219 413.2909288832536C504.32201756083396 473.8382329790297 499.85166744386083 501.53574485390106 474.3285986917208 531.7560207922323C448.80552993958077 561.9762967305637 420.1169980760868 563.1738505373464 385.1582668942501 558.3482533872436C350.1995357124135 553.5226562371406 325.8560313323384 538.119004153485 306.5266890189051 508.5931544717381C287.19734670547183 479.0673047899911 282.81688392719286 450.59468199430967 292.37742378977043 416.62417491485814C301.93796365234795 382.6536678354065 311.1638062443494 382.09622336169383 352.4172803592769 345.53472049037066C393.6707544742044 308.97321761904755 458.0499919278301 227.01308438398962 490.39409954142286 241.12896113250696C522.7382071550155 255.24483788102435 511.0159762482099 352.74362478747753 507.6689969045219 413.2909288832536C504.32201756083396 473.8382329790297 499.85166744386083 501.53574485390106 474.3285986917208 531.7560207922323 "></path><path d="M495.70574620408456 411.81416748444155C492.73065345413977 465.6339933473537 488.7570089057192 490.2540039027948 466.0698366815948 517.1164714035338C443.38266445747024 543.9789389042727 417.8817472454756 545.0434311769685 386.80731952828745 540.7540114879882C355.7328918110993 536.4645917990078 334.09422125103254 522.7724566135361 316.91258363909185 496.52725689642773C299.73094602715116 470.2820571793194 295.8372013353477 444.97305913871367 304.33545899097214 414.77705284586784C312.8337166465966 384.58104655302196 321.0344656172646 384.08554035416626 357.704220386089 351.58642669076784C394.37397515491347 319.0873130273695 451.5999640025808 246.23386126287357 480.3502818813298 258.7813072615557C509.1005997600789 271.3287532602378 498.68083895402947 357.9943416215295 495.70574620408456 411.81416748444155C492.73065345413977 465.6339933473537 488.7570089057192 490.2540039027948 466.0698366815948 517.1164714035338 "></path><path d="M483.7425412800145 410.3374060856295C481.13933512381277 457.42975371567763 477.66239614394476 478.97226295168866 457.81112044783583 502.4769220148353C437.9598447517269 525.9815810779818 415.64654219123156 526.9130118165906 388.45641793869197 523.1597695887328C361.2662936861523 519.4065273608751 342.3324569460939 507.42590907358726 327.2985240356458 484.46135932111747C312.2645911251977 461.4968095686477 308.85756451986964 439.35143628311766 316.29353996854104 412.92993077687754C323.72951541721244 386.50842527063736 330.9051707665469 386.0748573466386 362.9912061892683 357.638132891165C395.07724161198973 329.20140843569146 445.1499818536986 265.4546381417575 470.30650999760405 276.4336533906044C495.4630381415095 287.4126686394512 486.34574743621624 363.24505845558144 483.7425412800145 410.3374060856295C481.13933512381277 457.42975371567763 477.66239614394476 478.97226295168866 457.81112044783583 502.4769220148353 "></path><path d="M471.7793210971553 408.86062942802846C469.5480015346966 449.2254988252125 466.56776812338126 467.69050674179334 449.5523889552878 487.83735736734764C432.53700978719445 507.9842079929018 413.41132187819846 508.78257719742373 390.10550109030737 505.5655124306884C366.7996803024163 502.34844766395315 350.57067738236617 492.0793462748494 337.68444917341066 472.39544648701803C324.7982209644552 452.71154669918684 321.87791244560253 433.72979816873254 328.2516056873209 411.0827934490981C334.6252989290393 388.43578872946375 340.7758606570402 388.06415908032193 368.27817673365854 363.6898238327732C395.7804928102769 339.3154885852244 438.6999844460274 284.6753997618524 460.2627228550892 294.08598426086405C481.82546126415104 303.49656875987563 474.01064065961395 368.4957600308444 471.7793210971553 408.86062942802846C469.5480015346966 449.2254988252125 466.56776812338126 467.69050674179334 449.5523889552878 487.83735736734764 "></path><path d="M459.81610091429604 407.3838680292164C457.95666794558053 441.0212591935365 455.4731401028177 456.4087657906872 441.2936574627399 473.19780797864905C427.11417482266205 489.9868501666108 411.1761015651654 490.6521578370457 391.7545842419228 487.971270531433C372.33306691868023 485.2903832258203 358.8088978186385 476.7327987349005 348.07037431117556 460.3295489117078C337.33185080371265 443.92629908851507 334.8982603713354 428.1081753131365 340.20967140610077 409.2356713801078C345.52108244086605 390.36316744707915 350.64655054753354 390.0534760727943 373.5651472780488 369.74153003317036C396.4837440085641 349.4295839935464 432.24998703835615 303.8961766407364 450.2189357125743 311.73833038991273C468.18788438679246 319.58048413908904 461.6755338830116 373.74647686489635 459.81610091429604 407.3838680292164C457.95666794558053 441.0212591935365 455.4731401028177 456.4087657906872 441.2936574627399 473.19780797864905 "></path><path d="M447.8528807314368 405.9070913716153C446.3653343564644 432.81700430307137 444.37851208225413 445.12700958079193 433.0349259701919 458.5582433311614C421.69133985812965 471.9894770815309 408.94088125213233 472.5217232178788 393.4036673935382 470.37701337338865C377.8664535349442 468.23230352889846 367.0471182549108 461.38623593616256 358.45629944894046 448.2636360776084C349.8654806429701 435.14103621905423 347.9186082970684 422.48653719875136 352.1677371248806 407.38853405232845C356.41686595269283 392.2905309059055 360.5172404380268 392.04277780647766 378.852117822439 375.7932209747785C397.18699520685124 359.5436641430793 425.79998963068493 323.1169382608313 440.17514857005943 329.39066126017235C454.550307509434 335.66438425951344 449.34042710640927 378.9971784401593 447.8528807314368 405.9070913716153C446.3653343564644 432.81700430307137 444.37851208225413 445.12700958079193 433.0349259701919 458.5582433311614 "></path><path d="M435.8896758073667 404.43031471401423C434.77401602613736 424.61274941260626 433.2838993204797 433.84525337089667 424.776209736433 443.9186786836738C416.2685201523863 453.9921039964509 406.7056761978883 454.39128859871187 395.05276580394275 452.7827562153442C383.3998554099972 451.1742238319766 375.28535394997215 446.0396731374247 368.8422398454944 436.197723243509C362.39912574101663 426.3557733495934 360.93897148159033 416.86489908436624 364.1258181024495 405.54139672454903C367.31266472330867 394.2178943647319 370.38794558730916 394.03207954016096 384.13910362561836 381.8449119163866C397.8902616639275 369.65774429261216 419.3500074818028 342.3376998809262 430.1313766863336 347.042992130432C440.9127458908646 351.7482843799378 437.00533558859604 384.2478800154222 435.8896758073667 404.43031471401423C434.77401602613736 424.61274941260626 433.2838993204797 433.84525337089667 424.776209736433 443.9186786836738 "></path><path d="M423.9264403657184 402.9535380564131C423.1826671782322 416.40849452214115 422.18925604112707 422.56349716100146 416.51746298509596 429.2791140361862C410.8456699290648 435.9947309113709 404.47044062606614 436.2608539795449 396.70183369676914 435.1884990572998C388.9332267674721 434.1161441350547 383.52355912745537 430.6931103386868 379.2281497244702 424.1318104094097C374.9327403214851 417.5705104801326 373.95930414853416 411.2432609699812 376.0838685624403 403.69425939676967C378.20843297634644 396.1452578235582 380.2586202190134 396.02138127384427 389.4260589112195 387.8966028579947C398.59349760342565 379.7718244421451 412.89999481534244 361.5584615010211 420.08757428502975 364.69532300069164C427.275153754717 367.8321845003622 424.67021355320463 389.4985815906851 423.9264403657184 402.9535380564131C423.1826671782322 416.40849452214115 422.18925604112707 422.56349716100146 416.51746298509596 429.2791140361862 "></path><path d="M411.96322018285923 401.476761398812C411.5913335891161 408.20423963167605 411.09462802056356 411.2817409511062 408.25873149254795 414.6395493886986C405.4228349645324 417.9973578262909 402.2352203130331 418.1304193603779 398.35091684838454 417.59424189925534C394.46661338373605 417.0580644381328 391.7617795637277 415.34654753994886 389.6140748622351 412.0658975753103C387.46637016074254 408.7852476106718 386.9796520742671 405.62162285559606 388.04193428122016 401.8471220689903C389.1042164881732 398.0726212823846 390.1293101095067 398.01068300752763 394.7130294556098 393.9482937996028C399.2967488017128 389.885904591678 406.4499974076712 380.77922312111605 410.0437871425149 382.3476538709513C413.63757687735847 383.91608462078653 412.33510677660234 394.74928316594804 411.96322018285923 401.476761398812C411.5913335891161 408.20423963167605 411.09462802056356 411.2817409511062 408.25873149254795 414.6395493886986 "></path></g></svg>